PathFileType	4	(X/Y/Z)	C:/Users/opensim2020/Desktop/walking_exp_matlab/subject02_walking06_straight_04.trc																																																																																																																									
DataRate	CameraRate	NumFrames	NumMarkers	Units	OrigDataRate	OrigDataStartFrame	OrigNumFrames																																																																																																																					
100	100	9	41	mm	100	2763	216																																																																																																																					
Frame#	Time	LFHD			RFHD			LBHD			RBHD			C7			T10			CLAV			STRN			RBAK			LSHO			LUPA			LELB			LFRM			LWRA			LWRB			LFIN			RSHO			RUPA			RELB			RFRM			RWRA			RWRB			RFIN			LASI			RASI			LPSI			RPSI			LTHI			LKNE			LTIB			LANK			LHEE			LTOE			RTHI			RKNE			RTIB			RANK			RHEE			RTOE			*39			*40		
		X1	Y1	Z1	X2	Y2	Z2	X3	Y3	Z3	X4	Y4	Z4	X5	Y5	Z5	X6	Y6	Z6	X7	Y7	Z7	X8	Y8	Z8	X9	Y9	Z9	X10	Y10	Z10	X11	Y11	Z11	X12	Y12	Z12	X13	Y13	Z13	X14	Y14	Z14	X15	Y15	Z15	X16	Y16	Z16	X17	Y17	Z17	X18	Y18	Z18	X19	Y19	Z19	X20	Y20	Z20	X21	Y21	Z21	X22	Y22	Z22	X23	Y23	Z23	X24	Y24	Z24	X25	Y25	Z25	X26	Y26	Z26	X27	Y27	Z27	X28	Y28	Z28	X29	Y29	Z29	X30	Y30	Z30	X31	Y31	Z31	X32	Y32	Z32	X33	Y33	Z33	X34	Y34	Z34	X35	Y35	Z35	X36	Y36	Z36	X37	Y37	Z37	X38	Y38	Z38	X39	Y39	Z39	X40	Y40	Z40	X41	Y41	Z41
																																																																																																																												
109	1.08	327.76974	1721.77625	959.68024	322.16418	1702.68591	1102.49939	196.04326	1652.25293	945.85706	176.20259	1631.96484	1088.59302	133.28719	1511.5675	1017.19379	76.06915	1235.95667	1028.97034	272.58945	1441.43713	1006.96228	320.49594	1268.69983	1013.38977	70.62313	1336.54626	1079.99573	209.1515	1489.68555	839.64777	265.13763	1308.047	745.0575	336.8219	1183.39172	723.63928	442.81366	1099.3584	738.84857	557.32434	1062.00049	804.83301	537.68188	1027.3252	764.69708	599.91632	1007.5849	773.65088	206.83244	1473.96069	1204.25903	147.43895	1291.51221	1284.0509	142.96588	1144.73425	1304.59314	157.0032	1025.26282	1326.20435	190.49234	893.55042	1309.70178	143.45241	896.07904	1340.90259	171.57057	828.14465	1343.08069	285.85739	971.8595	873.55701	323.3103	961.24823	1126.40723	90.01947	1018.93805	984.04321	101.86189	1015.12799	1098.59216	168.79576	666.73981	841.48267	104.86291	472.46915	877.97375	9.03374	302.38486	881.67303	-35.114	82.7777	922.45386	-75.69261	60.51169	974.12335	116.50797	31.9631	912.08582	310.76947	662.74799	1215.07935	386.88385	470.77151	1174.10156	418.20877	288.06747	1190.41541	477.60046	101.52152	1165.26465	467.6929	35.64487	1110.4895	638.53632	104.41361	1172.34204	225.56181	1790.6864	1046.13013	NaN	NaN	NaN
110	1.09	338.04108	1720.32446	961.94556	332.245	1701.30542	1104.43481	205.69774	1651.1626	948.12573	186.6414	1630.72607	1089.79919	143.06897	1510.22693	1019.01959	86.30648	1234.47339	1030.93286	282.58057	1440.20874	1008.81036	330.80228	1267.53796	1014.97363	80.77873	1334.98315	1081.52649	218.98129	1488.54163	841.56726	274.53622	1306.99365	746.62561	346.4209	1182.34839	724.87897	452.24768	1099.18799	739.88647	568.06293	1062.68762	805.60254	548.63849	1027.95361	765.63092	611.13007	1008.73755	774.44263	216.88103	1472.40649	1206.17432	156.96313	1290.14136	1285.77002	151.78264	1143.58105	1306.65991	165.14116	1023.81793	1327.94751	197.83777	891.79291	1311.82605	150.625	894.91827	1342.81165	178.29437	826.80316	1345.04504	295.75674	970.41235	874.22247	334.56006	960.06665	1127.15808	100.50167	1017.3266	986.16333	112.68774	1013.63464	1100.62097	176.98264	666.06372	842.27185	111.77663	472.32465	878.50562	13.33402	303.76288	881.99524	-34.21093	84.7272	922.24896	-75.06185	63.12515	973.77954	116.60556	31.93227	911.94757	322.47595	661.64581	1216.09705	398.18332	469.60269	1174.66431	429.67734	286.96002	1190.79138	488.99658	100.42015	1165.5459	478.70239	34.72446	1110.69141	649.85327	102.73566	1172.245	235.42017	1789.12683	1047.84448	NaN	NaN	NaN
111	1.1	348.07242	1719.05188	964.11029	342.31989	1699.95789	1106.54431	215.88582	1649.6759	950.45288	196.64705	1629.42053	1091.94495	153.02432	1508.90039	1020.96716	96.76082	1232.98242	1032.91675	292.72421	1439.07507	1010.7478	341.08942	1266.43933	1016.6485	91.07018	1333.52209	1083.96741	228.97504	1487.29822	843.59991	283.97522	1305.84338	748.44275	355.68668	1181.12756	726.25543	461.99088	1098.5885	741.13727	578.1637	1063.08728	806.35742	558.87842	1027.95496	766.67322	621.38977	1009.28473	774.95648	226.95432	1470.93542	1208.16101	166.67461	1288.68665	1287.41199	161.23872	1142.203	1308.05469	173.87935	1022.52863	1330.00354	205.69904	890.38855	1313.797	158.34795	893.67255	1344.77124	185.55008	825.40967	1347.13562	305.79855	969.09698	874.97198	346.00394	959.0412	1128.02979	111.16973	1015.69067	988.43103	123.68317	1012.1933	1102.72229	185.51094	665.37024	843.10382	119.00219	472.22443	879.02924	17.96101	305.27902	882.33484	-33.20712	86.81773	922.06152	-74.07893	65.65651	973.38385	116.70565	31.87193	911.82068	334.9711	660.66498	1217.20081	409.88998	468.5838	1175.43994	440.25931	285.49533	1191.23523	497.96295	98.57998	1165.41565	487.50635	32.89787	1110.03015	658.65802	99.5493	1172.44714	245.55864	1787.98694	1050.16919	NaN	NaN	NaN
112	1.11	358.3161	1717.91809	966.11981	352.34415	1698.64709	1108.74719	225.4471	1648.3894	952.16547	206.77553	1628.11304	1094.10889	163.04642	1507.51306	1023.08063	107.2494	1231.43396	1035.04272	302.87906	1437.93494	1012.81183	351.52728	1265.35095	1018.35461	101.41451	1331.92017	1086.15088	238.87335	1486.30188	845.61102	292.88858	1304.4375	750.25671	364.47318	1179.69177	727.84094	471.63889	1097.44531	742.19189	587.77167	1062.74561	807.05481	568.62964	1027.26147	767.80811	630.97736	1008.84564	775.79248	237.07547	1469.5437	1210.29724	176.61403	1287.1394	1288.86609	170.6167	1140.9502	1310.11462	182.71797	1021.26807	1331.87512	213.95955	888.80127	1315.99719	166.44838	892.49091	1346.79431	193.2251	824.03931	1349.3252	316.0831	967.88867	875.8764	357.59863	958.14423	1129.11035	122.04278	1014.07556	990.76178	134.91869	1010.77332	1104.81152	194.36414	664.78271	844.1076	126.54827	472.16571	879.57227	22.82639	306.91782	882.72906	-32.09336	89.23331	921.7879	-73.56384	69.02	973.20056	116.77977	31.78184	911.68347	348.11252	659.83691	1218.40076	421.76944	467.47809	1176.32092	449.87585	283.66498	1191.74963	504.8577	96.12256	1165.10144	493.68683	30.74497	1109.61487	665.26019	95.652	1173.06873	255.55678	1786.44116	1052.21484	NaN	NaN	NaN
113	1.12	367.94806	1716.88684	968.35681	362.39191	1697.31409	1111.03381	235.30302	1647.28552	954.70465	216.68871	1626.83008	1096.53223	173.14929	1506.16272	1025.34143	117.92579	1229.81409	1037.22119	313.10583	1436.81836	1014.93146	362.16006	1264.36963	1020.21704	111.97242	1330.30627	1088.35657	248.81917	1485.21423	847.79486	302.20712	1303.06042	752.46704	372.91019	1178.10388	729.52704	480.47311	1096.10352	743.52148	596.72632	1061.73083	807.73083	577.31854	1026.2113	768.62701	640.00873	1007.77948	776.3858	247.18384	1468.30676	1212.40662	186.62898	1286.06775	1291.58081	180.51382	1139.66089	1311.65369	191.80402	1019.98346	1334.05701	222.15955	887.14758	1318.16895	175.05406	891.23212	1348.78516	201.31825	822.73566	1351.5835	326.60815	966.93909	876.9408	369.47247	957.44647	1130.43774	133.1209	1012.44476	993.2782	146.23576	1009.40002	1107.05811	203.58958	664.1767	845.09436	134.45659	472.09714	880.15375	27.91475	308.74744	883.16406	-31.04979	91.83705	921.47626	-72.43919	72.31245	972.9436	116.85668	31.74872	911.53845	361.87363	659.43585	1219.74707	433.39017	466.1655	1177.39624	458.4537	281.50952	1192.29004	509.93665	93.16736	1164.84912	498.23636	28.02044	1109.04236	670.09894	90.66877	1173.65796	265.80933	1785.45056	1055.03186	NaN	NaN	NaN
114	1.13	377.6734	1715.47876	970.71423	372.41202	1695.97803	1113.38135	245.35425	1646.23022	957.17712	226.61272	1625.50427	1099.28223	183.17999	1504.71924	1027.58862	128.72797	1228.14563	1039.55994	323.26425	1435.73889	1017.12152	372.89456	1263.44885	1022.12329	122.51862	1328.39954	1090.6261	258.74072	1484.06982	850.10925	310.80334	1301.71887	754.52075	380.85168	1176.30505	731.35327	487.93747	1094.18079	744.8894	605.25	1060.16528	808.40326	586.16626	1024.36621	769.85907	648.08551	1006.19806	776.71875	257.47345	1466.86023	1214.67749	196.88338	1284.60095	1293.42224	190.35075	1138.45557	1313.8645	201.31857	1018.72644	1335.90076	231.12172	885.74512	1320.68066	183.79199	890.2049	1351.14258	209.9198	821.30426	1353.99536	337.51199	966.02686	878.17645	381.61456	956.69702	1131.922	144.59935	1010.7359	995.8465	157.89282	1007.9198	1109.32605	213.34119	663.55157	846.14136	142.72665	472.10324	880.79297	33.28754	310.69177	883.76349	-29.41885	94.68609	921.26001	-71.62385	75.99221	972.58826	116.9658	31.70313	911.39337	375.94336	659.11188	1221.17065	444.62042	464.76245	1178.72913	465.95352	279.06943	1192.82764	513.51215	90.14892	1164.72461	500.05219	26.42208	1109.21082	673.3736	84.64964	1174.28345	275.58069	1784.09802	1057.39771	NaN	NaN	NaN
115	1.14	387.56516	1714.24792	973.19745	382.39105	1694.63965	1115.85913	255.25854	1644.90283	959.59253	236.6248	1624.05542	1101.5166	193.2811	1503.40466	1030.32019	139.64146	1226.35693	1041.97485	333.56366	1434.71277	1019.37146	383.72583	1262.56433	1024.13489	133.13588	1326.75903	1093.17651	268.7384	1482.92773	852.52032	319.42111	1300.31885	756.88739	388.6217	1174.34985	733.34961	495.95853	1091.81836	746.62793	613.19147	1057.94702	809.04547	592.82477	1021.84033	770.79431	655.15442	1003.20044	777.48724	267.64542	1465.60657	1216.76111	207.28961	1283.25745	1295.5896	200.6004	1137.11523	1315.62476	210.8347	1017.41858	1337.87695	240.7256	884.58228	1323.19727	193.03647	889.02521	1353.45618	218.79088	820.18634	1356.56628	348.73248	965.2254	879.70386	393.93954	956.44403	1133.63989	156.30399	1009.04889	998.52606	169.74879	1006.42847	1111.71899	223.1624	663.00012	847.25323	151.40257	472.11148	881.414	39.04041	312.8476	884.06335	-27.76307	97.83783	920.89771	-69.65354	80.12551	972.47522	117.05854	31.66386	911.26318	390.16745	658.82642	1222.53918	455.30078	463.18649	1180.43958	472.50027	276.35861	1193.23083	516.36627	86.83329	1164.20874	501.23672	25.1726	1108.56409	675.63226	77.06335	1175.01282	285.47876	1782.81494	1059.94153	NaN	NaN	NaN
116	1.15	398.13638	1713.17175	976.3667	392.40384	1693.45251	1118.41003	265.09842	1643.75769	962.30798	246.79326	1622.83545	1103.95715	203.08728	1501.77112	1032.6051	150.57808	1224.81482	1044.54956	344.01123	1433.70081	1021.69006	394.65613	1261.85522	1026.34961	143.82069	1325.07764	1095.54565	278.62024	1481.80408	854.95789	328.73819	1298.79407	759.55408	395.9162	1172.32605	735.45087	502.85724	1089.40503	748.02167	620.5553	1055.05334	809.6864	599.70142	1018.94263	771.75226	662.42999	1000.34784	778.00159	277.965	1464.32068	1219.09412	217.68625	1281.90173	1297.92639	211.02412	1135.75012	1317.69116	220.89308	1016.14728	1340.19788	250.40649	883.10419	1325.73376	202.66666	887.83057	1355.79871	228.24956	818.7251	1359.104	360.59314	964.75421	881.75928	405.94403	956.05792	1135.57092	168.12184	1007.37811	1001.30597	181.67253	1004.97015	1114.25916	233.23944	662.33838	848.48474	160.55823	472.15341	882.13251	45.0222	315.19138	884.97095	-25.97992	101.3471	920.55084	-68.36539	84.6098	971.96533	117.09383	31.54332	911.27307	404.28482	658.69672	1224.30542	465.22891	461.69366	1182.66333	478.84131	274.01929	1192.37061	519.99237	85.52606	1162.9137	503.63644	27.36105	1107.31738	679.79529	67.15236	1177.95264	295.40271	1781.64587	1062.82739	NaN	NaN	NaN
117	1.16	407.80118	1712.6615	978.64215	402.5665	1692.87878	1121.10681	275.31	1643.14563	964.74823	257.01248	1622.00293	1106.55103	212.88171	1500.72705	1035.38733	161.49905	1224.08105	1047.13538	353.40631	1432.81616	1024.16528	405.26974	1261.43799	1028.49548	154.4669	1323.88232	1097.82935	288.45023	1480.85986	857.27979	337.21661	1297.43787	762.04431	402.95584	1170.16772	737.68475	509.16998	1086.47766	749.3988	627.47699	1051.5835	810.27368	606.10944	1015.54108	772.72656	668.74878	996.54846	778.43872	288.20639	1463.23291	1221.70752	228.31241	1280.54114	1300.39343	221.64081	1134.37378	1319.91211	231.22527	1014.84796	1342.4845	260.39539	881.63824	1328.47485	212.68118	886.633	1358.2605	238.10878	817.48218	1361.82666	372.62418	963.98639	883.8302	417.65192	955.89697	1137.71582	179.97049	1005.76593	1004.13672	193.63843	1003.78387	1116.91223	244.07224	661.90924	849.77246	170.22638	472.39362	883.06891	51.50456	317.8493	885.65857	-23.94287	105.38542	919.88849	-65.96004	89.87902	971.40894	117.37038	31.54645	911.03375	417.24167	659.66785	1226.12097	474.94336	461.35788	1185.07202	486.55399	273.43027	1191.66663	525.90808	86.07721	1164.98022	506.93954	29.68011	1108.38879	685.13416	59.78457	1180.45911	305.41592	1780.8241	1065.66113	NaN	NaN	NaN
